<mxfile host="app.diagrams.net" agent="Mozilla/5.0 (Windows NT 10.0; Win64; x64) AppleWebKit/537.36 (KHTML, like Gecko) Chrome/129.0.0.0 Safari/537.36 Edg/129.0.0.0" version="24.7.17">
  <diagram name="Страница — 1" id="Q-sj7i5uU9UtFon_FmCh">
    <mxGraphModel dx="868" dy="512" grid="1" gridSize="10" guides="1" tooltips="1" connect="1" arrows="1" fold="1" page="1" pageScale="1" pageWidth="827" pageHeight="1169" math="0" shadow="0">
      <root>
        <mxCell id="0" />
        <mxCell id="1" parent="0" />
        <mxCell id="761ST6RR9nc0Aw77tE2h-1" value="Заместитель директора &lt;br&gt;по учебной работе" style="shape=umlActor;verticalLabelPosition=bottom;verticalAlign=top;html=1;outlineConnect=0;" vertex="1" parent="1">
          <mxGeometry x="149" y="140" width="30" height="60" as="geometry" />
        </mxCell>
        <mxCell id="761ST6RR9nc0Aw77tE2h-2" value="Руководитель &lt;br&gt;по пению" style="shape=umlActor;verticalLabelPosition=bottom;verticalAlign=top;html=1;outlineConnect=0;" vertex="1" parent="1">
          <mxGeometry x="135" y="350" width="30" height="60" as="geometry" />
        </mxCell>
        <mxCell id="761ST6RR9nc0Aw77tE2h-3" value="Составление &lt;br&gt;расписания" style="ellipse;whiteSpace=wrap;html=1;" vertex="1" parent="1">
          <mxGeometry x="269" y="110" width="130" height="60" as="geometry" />
        </mxCell>
        <mxCell id="761ST6RR9nc0Aw77tE2h-4" value="Контроль за учебной нагрузкой" style="ellipse;whiteSpace=wrap;html=1;" vertex="1" parent="1">
          <mxGeometry x="279" y="190" width="130" height="70" as="geometry" />
        </mxCell>
        <mxCell id="761ST6RR9nc0Aw77tE2h-5" value="Получение расписания" style="ellipse;whiteSpace=wrap;html=1;" vertex="1" parent="1">
          <mxGeometry x="255" y="310" width="140" height="70" as="geometry" />
        </mxCell>
        <mxCell id="761ST6RR9nc0Aw77tE2h-6" value="Предоставление рабочего времени" style="ellipse;whiteSpace=wrap;html=1;" vertex="1" parent="1">
          <mxGeometry x="260" y="410" width="130" height="70" as="geometry" />
        </mxCell>
        <mxCell id="761ST6RR9nc0Aw77tE2h-8" value="" style="endArrow=classic;html=1;rounded=0;entryX=0;entryY=0.5;entryDx=0;entryDy=0;" edge="1" parent="1" source="761ST6RR9nc0Aw77tE2h-1" target="761ST6RR9nc0Aw77tE2h-3">
          <mxGeometry width="50" height="50" relative="1" as="geometry">
            <mxPoint x="299" y="370" as="sourcePoint" />
            <mxPoint x="349" y="320" as="targetPoint" />
          </mxGeometry>
        </mxCell>
        <mxCell id="761ST6RR9nc0Aw77tE2h-9" value="" style="endArrow=classic;html=1;rounded=0;entryX=0;entryY=0.5;entryDx=0;entryDy=0;" edge="1" parent="1" source="761ST6RR9nc0Aw77tE2h-1" target="761ST6RR9nc0Aw77tE2h-4">
          <mxGeometry width="50" height="50" relative="1" as="geometry">
            <mxPoint x="189" y="175" as="sourcePoint" />
            <mxPoint x="279" y="145" as="targetPoint" />
          </mxGeometry>
        </mxCell>
        <mxCell id="761ST6RR9nc0Aw77tE2h-10" value="" style="endArrow=classic;html=1;rounded=0;entryX=0;entryY=0.5;entryDx=0;entryDy=0;" edge="1" parent="1" source="761ST6RR9nc0Aw77tE2h-2" target="761ST6RR9nc0Aw77tE2h-5">
          <mxGeometry width="50" height="50" relative="1" as="geometry">
            <mxPoint x="185" y="165" as="sourcePoint" />
            <mxPoint x="275" y="135" as="targetPoint" />
          </mxGeometry>
        </mxCell>
        <mxCell id="761ST6RR9nc0Aw77tE2h-11" value="" style="endArrow=classic;html=1;rounded=0;entryX=0;entryY=0.5;entryDx=0;entryDy=0;" edge="1" parent="1" source="761ST6RR9nc0Aw77tE2h-2" target="761ST6RR9nc0Aw77tE2h-6">
          <mxGeometry width="50" height="50" relative="1" as="geometry">
            <mxPoint x="195" y="175" as="sourcePoint" />
            <mxPoint x="285" y="145" as="targetPoint" />
          </mxGeometry>
        </mxCell>
        <mxCell id="761ST6RR9nc0Aw77tE2h-16" value="Проверка успеваемости и прогресса учащихся" style="ellipse;whiteSpace=wrap;html=1;" vertex="1" parent="1">
          <mxGeometry x="500" y="220" width="150" height="70" as="geometry" />
        </mxCell>
        <mxCell id="761ST6RR9nc0Aw77tE2h-17" value="" style="endArrow=classic;html=1;rounded=0;exitX=1;exitY=0.5;exitDx=0;exitDy=0;entryX=0;entryY=0.5;entryDx=0;entryDy=0;dashed=1;" edge="1" parent="1" source="761ST6RR9nc0Aw77tE2h-4" target="761ST6RR9nc0Aw77tE2h-16">
          <mxGeometry width="50" height="50" relative="1" as="geometry">
            <mxPoint x="379" y="400" as="sourcePoint" />
            <mxPoint x="429" y="350" as="targetPoint" />
          </mxGeometry>
        </mxCell>
        <mxCell id="761ST6RR9nc0Aw77tE2h-18" value="&amp;lt;&amp;lt;include&amp;gt;&amp;gt;" style="edgeLabel;html=1;align=center;verticalAlign=middle;resizable=0;points=[];rotation=19;" vertex="1" connectable="0" parent="761ST6RR9nc0Aw77tE2h-17">
          <mxGeometry x="0.1896" y="1" relative="1" as="geometry">
            <mxPoint x="-22" y="2" as="offset" />
          </mxGeometry>
        </mxCell>
        <mxCell id="761ST6RR9nc0Aw77tE2h-19" value="Распределение &lt;br&gt;времени" style="ellipse;whiteSpace=wrap;html=1;" vertex="1" parent="1">
          <mxGeometry x="520" y="80" width="100" height="60" as="geometry" />
        </mxCell>
        <mxCell id="761ST6RR9nc0Aw77tE2h-20" value="" style="endArrow=classic;html=1;rounded=0;dashed=1;entryX=0;entryY=0.5;entryDx=0;entryDy=0;exitX=0.992;exitY=0.336;exitDx=0;exitDy=0;exitPerimeter=0;" edge="1" parent="1" target="761ST6RR9nc0Aw77tE2h-19" source="761ST6RR9nc0Aw77tE2h-3">
          <mxGeometry width="50" height="50" relative="1" as="geometry">
            <mxPoint x="429" y="80" as="sourcePoint" />
            <mxPoint x="519" y="120" as="targetPoint" />
          </mxGeometry>
        </mxCell>
        <mxCell id="761ST6RR9nc0Aw77tE2h-21" value="&amp;lt;&amp;lt;include&amp;gt;&amp;gt;" style="edgeLabel;html=1;align=center;verticalAlign=middle;resizable=0;points=[];rotation=350;" vertex="1" connectable="0" parent="761ST6RR9nc0Aw77tE2h-20">
          <mxGeometry x="0.1896" y="1" relative="1" as="geometry">
            <mxPoint x="-16" y="13" as="offset" />
          </mxGeometry>
        </mxCell>
        <mxCell id="761ST6RR9nc0Aw77tE2h-22" value="Определение тем и материалов для занятий" style="ellipse;whiteSpace=wrap;html=1;" vertex="1" parent="1">
          <mxGeometry x="500" y="300" width="150" height="70" as="geometry" />
        </mxCell>
        <mxCell id="761ST6RR9nc0Aw77tE2h-23" value="" style="endArrow=classic;html=1;rounded=0;exitX=1;exitY=0.5;exitDx=0;exitDy=0;entryX=0;entryY=0.5;entryDx=0;entryDy=0;dashed=1;" edge="1" parent="1" target="761ST6RR9nc0Aw77tE2h-22" source="761ST6RR9nc0Aw77tE2h-5">
          <mxGeometry width="50" height="50" relative="1" as="geometry">
            <mxPoint x="425" y="345" as="sourcePoint" />
            <mxPoint x="445" y="470" as="targetPoint" />
          </mxGeometry>
        </mxCell>
        <mxCell id="761ST6RR9nc0Aw77tE2h-24" value="&amp;lt;&amp;lt;include&amp;gt;&amp;gt;" style="edgeLabel;html=1;align=center;verticalAlign=middle;resizable=0;points=[];rotation=356;" vertex="1" connectable="0" parent="761ST6RR9nc0Aw77tE2h-23">
          <mxGeometry x="0.1896" y="1" relative="1" as="geometry">
            <mxPoint x="-16" y="10" as="offset" />
          </mxGeometry>
        </mxCell>
        <mxCell id="761ST6RR9nc0Aw77tE2h-25" value="Проведение&lt;br&gt;занятий" style="ellipse;whiteSpace=wrap;html=1;" vertex="1" parent="1">
          <mxGeometry x="485" y="430" width="100" height="60" as="geometry" />
        </mxCell>
        <mxCell id="761ST6RR9nc0Aw77tE2h-26" value="" style="endArrow=classic;html=1;rounded=0;exitX=1;exitY=0.5;exitDx=0;exitDy=0;entryX=0;entryY=0.5;entryDx=0;entryDy=0;dashed=1;" edge="1" parent="1" target="761ST6RR9nc0Aw77tE2h-25" source="761ST6RR9nc0Aw77tE2h-6">
          <mxGeometry width="50" height="50" relative="1" as="geometry">
            <mxPoint x="419" y="445" as="sourcePoint" />
            <mxPoint x="439" y="570" as="targetPoint" />
          </mxGeometry>
        </mxCell>
        <mxCell id="761ST6RR9nc0Aw77tE2h-27" value="&amp;lt;&amp;lt;include&amp;gt;&amp;gt;" style="edgeLabel;html=1;align=center;verticalAlign=middle;resizable=0;points=[];rotation=5;" vertex="1" connectable="0" parent="761ST6RR9nc0Aw77tE2h-26">
          <mxGeometry x="0.1896" y="1" relative="1" as="geometry">
            <mxPoint x="-16" y="10" as="offset" />
          </mxGeometry>
        </mxCell>
        <mxCell id="761ST6RR9nc0Aw77tE2h-28" value="Формирование расписания в электронном виде" style="ellipse;whiteSpace=wrap;html=1;" vertex="1" parent="1">
          <mxGeometry x="510" y="150" width="160" height="60" as="geometry" />
        </mxCell>
        <mxCell id="761ST6RR9nc0Aw77tE2h-29" value="" style="endArrow=classic;html=1;rounded=0;exitX=0;exitY=0.5;exitDx=0;exitDy=0;entryX=0.997;entryY=0.647;entryDx=0;entryDy=0;dashed=1;entryPerimeter=0;" edge="1" parent="1" source="761ST6RR9nc0Aw77tE2h-28" target="761ST6RR9nc0Aw77tE2h-3">
          <mxGeometry width="50" height="50" relative="1" as="geometry">
            <mxPoint x="554.6800000000001" y="180" as="sourcePoint" />
            <mxPoint x="580" y="47.52999999999997" as="targetPoint" />
          </mxGeometry>
        </mxCell>
        <mxCell id="761ST6RR9nc0Aw77tE2h-30" value="&amp;lt;&amp;lt;extend&amp;gt;&amp;gt;" style="edgeLabel;html=1;align=center;verticalAlign=middle;resizable=0;points=[];rotation=17;" vertex="1" connectable="0" parent="761ST6RR9nc0Aw77tE2h-29">
          <mxGeometry x="0.049" y="4" relative="1" as="geometry">
            <mxPoint y="3" as="offset" />
          </mxGeometry>
        </mxCell>
      </root>
    </mxGraphModel>
  </diagram>
</mxfile>
